<svg width="43" height="15" viewBox="0 0 43 15" fill="none" xmlns="http://www.w3.org/2000/svg">
<path d="M0.494 0.589999H8.99V2.21H2.258V6.548H8.36V8.168H2.258V14H0.494V0.589999ZM10.7901 4.298H12.4641V14H10.7901V4.298ZM10.5921 1.706C10.5921 1.394 10.6881 1.142 10.8801 0.95C11.0721 0.757999 11.3241 0.661999 11.6361 0.661999C11.9481 0.661999 12.2001 0.757999 12.3921 0.95C12.5841 1.142 12.6801 1.394 12.6801 1.706C12.6801 2.018 12.5841 2.27 12.3921 2.462C12.2001 2.654 11.9481 2.75 11.6361 2.75C11.3241 2.75 11.0721 2.654 10.8801 2.462C10.6881 2.27 10.5921 2.018 10.5921 1.706ZM15.0616 0.373999H16.7356V14H15.0616V0.373999ZM23.2751 14.108C22.3271 14.108 21.5951 13.844 21.0791 13.316C20.5751 12.776 20.3231 12.008 20.3231 11.012V5.9H18.5591V4.298H18.9191C19.3511 4.298 19.6931 4.172 19.9451 3.92C20.1971 3.656 20.3231 3.302 20.3231 2.858V2.066H21.9971V4.298H24.1751V5.9H21.9971V10.958C21.9971 12.038 22.5371 12.578 23.6171 12.578C23.8451 12.578 24.0671 12.56 24.2831 12.524V14.018C24.0311 14.078 23.6951 14.108 23.2751 14.108ZM30.6702 14.216C29.7582 14.216 28.9302 13.994 28.1862 13.55C27.4422 13.106 26.8602 12.5 26.4402 11.732C26.0202 10.952 25.8102 10.082 25.8102 9.122C25.8102 8.162 26.0142 7.298 26.4222 6.53C26.8422 5.762 27.4062 5.162 28.1142 4.73C28.8342 4.298 29.6382 4.082 30.5262 4.082C31.4502 4.082 32.2542 4.298 32.9382 4.73C33.6342 5.162 34.1622 5.738 34.5222 6.458C34.8942 7.166 35.0802 7.928 35.0802 8.744C35.0802 9.02 35.0502 9.32 34.9902 9.644H27.5742C27.5982 10.256 27.7542 10.79 28.0422 11.246C28.3302 11.702 28.7022 12.056 29.1582 12.308C29.6262 12.56 30.1362 12.686 30.6882 12.686C31.8642 12.686 32.7702 12.152 33.4062 11.084L34.8102 11.804C34.4982 12.5 33.9702 13.076 33.2262 13.532C32.4822 13.988 31.6302 14.216 30.6702 14.216ZM33.2622 8.204C33.2382 7.448 32.9622 6.824 32.4342 6.332C31.9182 5.828 31.2822 5.576 30.5262 5.576C29.7822 5.576 29.1402 5.816 28.6002 6.296C28.0602 6.764 27.7302 7.4 27.6102 8.204H33.2622ZM37.2628 4.298H38.9008V5.45C39.4048 4.61 40.2628 4.19 41.4748 4.19H42.0688V5.774H41.2228C40.5268 5.774 39.9688 5.99 39.5488 6.422C39.1408 6.854 38.9368 7.454 38.9368 8.222V14H37.2628V4.298Z" fill="#151411"/>
</svg>
